<?xml version="1.0" encoding="UTF-8"?>
<svg version="1.1" xmlns="http://www.w3.org/2000/svg" width="350" height="350">
<path d="M0 0 C115.5 0 231 0 350 0 C350 115.5 350 231 350 350 C234.5 350 119 350 0 350 C0 234.5 0 119 0 0 Z " fill="#FEFEFE" transform="translate(0,0)"/>
<path d="M0 0 C6.51472099 3.4389977 12.60361342 9.37157868 15.0625 16.4375 C15.64751383 20.10127308 15.92846902 23.73154329 16.0625 27.4375 C16.81015625 27.56125 17.5578125 27.685 18.328125 27.8125 C26.20264258 29.46161363 26.20264258 29.46161363 28.68359375 32.27734375 C30.55034022 35.9492956 31.0625 38.24025147 31.0625 42.4375 C30.4025 42.4375 29.7425 42.4375 29.0625 42.4375 C29.124375 43.365625 29.18625 44.29375 29.25 45.25 C29.0625 48.4375 29.0625 48.4375 27.5625 50.3125 C27.0675 50.68375 26.5725 51.055 26.0625 51.4375 C25.7325 48.7975 25.4025 46.1575 25.0625 43.4375 C24.7221875 44.984375 24.7221875 44.984375 24.375 46.5625 C23.06855928 50.95607803 21.55481212 53.39101496 18.0625 56.4375 C14.99566382 56.92634134 12.13839271 56.79936973 9.0625 56.4375 C9.0625 55.7775 9.0625 55.1175 9.0625 54.4375 C8.0725 54.1075 7.0825 53.7775 6.0625 53.4375 C8.3698396 59.64956815 10.51416569 63.50384952 16.3125 66.9375 C17.28574219 67.53175781 18.25898438 68.12601562 19.26171875 68.73828125 C20.18597656 69.29902344 21.11023438 69.85976562 22.0625 70.4375 C29.44940108 75.18342052 29.44940108 75.18342052 31.0625 79.4375 C32.14040937 88.0106396 30.44306592 95.82609055 28.21875 104.05859375 C21.66962601 127.19484 21.66962601 127.19484 26.73706055 149.67626953 C29.02634039 154.44542684 30.34570055 159.47631294 31.75 164.5625 C32.19182617 166.11130859 32.19182617 166.11130859 32.64257812 167.69140625 C33.46756624 170.60203847 34.26641203 173.51886085 35.0625 176.4375 C35.27583984 177.16549805 35.48917969 177.89349609 35.70898438 178.64355469 C37.1159007 183.66719053 37.30381889 188.27473085 37.1875 193.4375 C37.17847656 194.21222656 37.16945312 194.98695313 37.16015625 195.78515625 C37.13689388 197.66940843 37.1010364 199.55349832 37.0625 201.4375 C38.14180786 201.47508423 38.14180786 201.47508423 39.24291992 201.51342773 C65.62918661 202.44485682 65.62918661 202.44485682 76.0625 203.4375 C76.0625 204.0975 76.0625 204.7575 76.0625 205.4375 C65.6675 206.4275 65.6675 206.4275 55.0625 207.4375 C55.7225 208.0975 56.3825 208.7575 57.0625 209.4375 C56.04265015 209.45937378 56.04265015 209.45937378 55.00219727 209.48168945 C51.87593718 209.5568642 48.75066518 209.65329232 45.625 209.75 C44.55572266 209.77255859 43.48644531 209.79511719 42.38476562 209.81835938 C34.52115033 210.08288466 27.50762365 210.79868189 21.125 215.6875 C18.06926521 219.76181306 17.16589197 223.64537243 16.875 228.6875 C16.0625 231.4375 16.0625 231.4375 13.1875 233.3125 C4.94408562 236.14459328 -4.08706712 234.8365318 -11.9375 231.4375 C-20.03374443 227.19989121 -28.52350051 221.28709669 -33.21875 213.2421875 C-35.82087365 210.50995767 -38.85607807 210.55356814 -42.4375 210.25 C-49.72916667 209.50694444 -49.72916667 209.50694444 -52.9375 208.4375 C-52.33550781 209.5409375 -51.73351562 210.644375 -51.11328125 211.78125 C-48.67146022 216.66703871 -47.42146586 221.6544016 -46.125 226.9375 C-42.3055138 241.6272636 -37.76557755 258.26636326 -23.9375 266.4375 C-21.9375 268.4375 -21.9375 268.4375 -21.5 271.125 C-22.01492704 275.02373328 -23.29722136 276.75442678 -25.74609375 279.7265625 C-28.99757456 284.39590215 -28.19401077 290.56983015 -28.36328125 296.02734375 C-29.04940897 300.10210226 -29.76719009 301.77303732 -32.9375 304.4375 C-35.90422677 304.80983017 -38.25606241 304.9183246 -41.1875 304.75 C-41.93257813 304.72744141 -42.67765625 304.70488281 -43.4453125 304.68164062 C-45.276909 304.62293561 -47.10746653 304.53325757 -48.9375 304.4375 C-49.515625 302.046875 -49.515625 302.046875 -49.9375 299.4375 C-48.12432851 296.89905991 -46.95282925 296.44260975 -43.9375 295.4375 C-42.87027447 274.00405401 -51.24244663 261.1148838 -63.9375 244.4375 C-70.01269123 236.34501879 -75.56550918 228.00498444 -80.9375 219.4375 C-81.56527344 218.44492188 -82.19304687 217.45234375 -82.83984375 216.4296875 C-83.38769531 215.54539063 -83.93554688 214.66109375 -84.5 213.75 C-84.97566406 212.98300781 -85.45132813 212.21601563 -85.94140625 211.42578125 C-86.9375 209.4375 -86.9375 209.4375 -86.9375 206.4375 C-87.9275 206.4375 -88.9175 206.4375 -89.9375 206.4375 C-90.04400879 207.14543701 -90.15051758 207.85337402 -90.26025391 208.58276367 C-91.01766928 211.77543057 -92.22347648 214.22288476 -93.7734375 217.11328125 C-94.34320313 218.18900391 -94.91296875 219.26472656 -95.5 220.37304688 C-96.098125 221.48744141 -96.69625 222.60183594 -97.3125 223.75 C-104.69430328 236.55045872 -104.69430328 236.55045872 -107.1875 250.8125 C-107.17203125 251.83085937 -107.1565625 252.84921875 -107.140625 253.8984375 C-107.09763589 256.42928076 -107.09763589 256.42928076 -105.9375 258.4375 C-105.26897632 263.53499304 -105.26897632 263.53499304 -105.9375 266.4375 C-108.81422124 269.95446713 -112.51463605 271.48565844 -116.875 272.375 C-123.04605385 273.64024508 -127.372077 277.94013887 -131.8125 282.1875 C-138.84464375 287.2506435 -147.58205934 286.72342763 -155.9375 286.4375 C-155.59765625 284.046875 -155.59765625 284.046875 -154.9375 281.4375 C-153.55190525 280.49124017 -152.15809908 279.55489233 -150.7265625 278.6796875 C-139.00531817 270.54135629 -130.47605813 253.2822412 -124.9375 240.4375 C-124.47085938 239.36757813 -124.00421875 238.29765625 -123.5234375 237.1953125 C-117.67877638 223.07748163 -114.78622813 207.94582196 -111.8671875 193 C-111.18391709 189.5397234 -110.37115519 186.18094834 -109.3125 182.8125 C-109.05210938 181.97460938 -108.79171875 181.13671875 -108.5234375 180.2734375 C-108.23339844 179.36464844 -108.23339844 179.36464844 -107.9375 178.4375 C-108.5975 178.4375 -109.2575 178.4375 -109.9375 178.4375 C-109.9375 179.0975 -109.9375 179.7575 -109.9375 180.4375 C-112.9375 179.4375 -112.9375 179.4375 -114.625 177 C-118.37923394 166.80993646 -115.39511005 153.45289386 -111.1875 143.75 C-107.82349084 137.88519912 -101.35257451 135.97921336 -95.25 134 C-92.95091109 133.44076216 -90.92064062 133.31737545 -88.5625 133.25 C-83.11751266 132.8121164 -79.68171974 129.70626405 -75.5078125 126.41015625 C-73.39653769 124.78980096 -71.57453871 123.67038568 -69.1875 122.5625 C-58.70291644 115.70719537 -52.08883818 99.37895842 -47.1484375 88.171875 C-45.79266626 85.11045608 -44.3875936 82.0804613 -42.9375 79.0625 C-42.48375 78.10601562 -42.03 77.14953125 -41.5625 76.1640625 C-39.3102565 72.38505779 -37.25095179 69.17532136 -32.88134766 67.78173828 C-30.50766794 67.31345447 -28.15211539 66.97506369 -25.75 66.6875 C-20.17709509 66.14542973 -20.17709509 66.14542973 -14.9375 64.4375 C-15.50489868 60.30776372 -15.50489868 60.30776372 -16.9375 56.4375 C-17.78054687 56.53289062 -18.62359375 56.62828125 -19.4921875 56.7265625 C-20.58789062 56.83742187 -21.68359375 56.94828125 -22.8125 57.0625 C-24.44832031 57.23652344 -24.44832031 57.23652344 -26.1171875 57.4140625 C-27.04789063 57.42179687 -27.97859375 57.42953125 -28.9375 57.4375 C-32.55924279 53.81575721 -33.81706218 48.40465106 -34.125 43.375 C-34.0321875 42.4159375 -34.0321875 42.4159375 -33.9375 41.4375 C-34.9275 41.4375 -35.9175 41.4375 -36.9375 41.4375 C-36.0625 35.5625 -36.0625 35.5625 -34.9375 34.4375 C-34.69016863 30.29473125 -34.69016863 30.29473125 -35.9375 26.4375 C-36.1413764 24.8376366 -36.30256712 23.23214703 -36.4375 21.625 C-36.67909666 18.8224787 -36.96119094 16.34865897 -37.6875 13.625 C-37.9375 11.4375 -37.9375 11.4375 -37.0625 8.9375 C-33.94840685 5.273861 -30.20448341 3.53850199 -25.9375 1.4375 C-24.885625 0.839375 -23.83375 0.24125 -22.75 -0.375 C-15.45934548 -2.6458596 -7.17598038 -2.85562169 0 0 Z " fill="#050505" transform="translate(214.9375,23.5625)"/>
<path d="M0 0 C0.66 0 1.32 0 2 0 C2.84678051 1.86896555 3.67686211 3.74550181 4.5 5.625 C4.9640625 6.66914063 5.428125 7.71328125 5.90625 8.7890625 C7.02767398 12.08124291 7.207138 14.55115223 7 18 C0.28837062 18.88021369 -6.23405981 19.11381955 -13 19 C-11.56459331 14.70938218 -9.4156501 11.8113019 -6.5 8.375 C-4.18155004 5.62748625 -1.99502675 2.99254012 0 0 Z " fill="#E5E5E5" transform="translate(174,139)"/>
<path d="M0 0 C28.35792096 0.9874945 28.35792096 0.9874945 39 2 C39 2.66 39 3.32 39 4 C32.44353054 5.10853602 25.88707974 5.40108977 19.25 5.6875 C18.11433594 5.74744141 16.97867187 5.80738281 15.80859375 5.86914062 C14.17857422 5.9397168 14.17857422 5.9397168 12.515625 6.01171875 C11.52852539 6.05772217 10.54142578 6.10372559 9.52441406 6.15112305 C7 6 7 6 4 4 C4 3.01 4 2.02 4 1 C2.68 0.67 1.36 0.34 0 0 Z " fill="#161616" transform="translate(252,225)"/>
<path d="M0 0 C4.95 0 9.9 0 15 0 C15 1.98 15 3.96 15 6 C9.45949887 5.43174347 4.96284034 3.37113483 0 1 C0 0.67 0 0.34 0 0 Z " fill="#A6A6A6" transform="translate(173,174)"/>
<path d="M0 0 C0.99 0.495 0.99 0.495 2 1 C2.33 1.99 2.66 2.98 3 4 C3.66 4.33 4.32 4.66 5 5 C5 5.66 5 6.32 5 7 C7.31 7 9.62 7 12 7 C11.525625 7.4125 11.05125 7.825 10.5625 8.25 C8.83733482 10.182185 8.43415125 11.48192275 8 14 C8.66 14 9.32 14 10 14 C9.67 14.66 9.34 15.32 9 16 C4.76069809 12.23173163 2.00165951 8.34521366 0 3 C0 2.01 0 1.02 0 0 Z " fill="#D4D4D4" transform="translate(219,73)"/>
<path d="M0 0 C0.66 0 1.32 0 2 0 C2.67667998 1.24460783 3.34094719 2.49596896 4 3.75 C4.556875 4.79414062 4.556875 4.79414062 5.125 5.859375 C6 8 6 8 6 12 C5.34 12 4.68 12 4 12 C4 13.98 4 15.96 4 18 C3.34 18.33 2.68 18.66 2 19 C1.95101562 18.10796875 1.90203125 17.2159375 1.8515625 16.296875 C1.77679688 15.12640625 1.70203125 13.9559375 1.625 12.75 C1.55539063 11.58984375 1.48578125 10.4296875 1.4140625 9.234375 C1.03236125 6.25278413 0.37000536 4.59705364 -1 2 C-0.67 1.34 -0.34 0.68 0 0 Z " fill="#808080" transform="translate(240,54)"/>
<path d="M0 0 C1.22589844 0.01353516 1.22589844 0.01353516 2.4765625 0.02734375 C3.41628906 0.04474609 3.41628906 0.04474609 4.375 0.0625 C4.375 0.7225 4.375 1.3825 4.375 2.0625 C-2.24398609 3.20569208 -8.85818404 3.3925024 -15.5625 3.625 C-16.72330078 3.66818359 -17.88410156 3.71136719 -19.08007812 3.75585938 C-21.92828232 3.86134842 -24.77656529 3.96346555 -27.625 4.0625 C-25.23519676 1.67269676 -24.60905488 1.78946425 -21.34375 1.68359375 C-20.50199219 1.64943359 -19.66023438 1.61527344 -18.79296875 1.58007812 C-17.91253906 1.55365234 -17.03210938 1.52722656 -16.125 1.5 C-14.38527651 1.44014129 -12.6456772 1.37651931 -10.90625 1.30859375 C-10.13345703 1.28466553 -9.36066406 1.2607373 -8.56445312 1.23608398 C-5.48694775 0.9606426 -3.25274115 -0.04646773 0 0 Z " fill="#656565" transform="translate(286.625,226.9375)"/>
<path d="M0 0 C1.32 0.66 2.64 1.32 4 2 C1.26943005 6.22797927 1.26943005 6.22797927 -1 8 C-4.06437568 8.52268615 -6.92228147 8.36208453 -10 8 C-10 7.34 -10 6.68 -10 6 C-7.03 5.34 -4.06 4.68 -1 4 C-0.67 2.68 -0.34 1.36 0 0 Z " fill="#414141" transform="translate(234,72)"/>
<path d="M0 0 C0.33 1.32 0.66 2.64 1 4 C-4.14285714 8.42857143 -4.14285714 8.42857143 -8 9 C-8 9.66 -8 10.32 -8 11 C-8.66 11 -9.32 11 -10 11 C-10 11.66 -10 12.32 -10 13 C-9.34 13.33 -8.68 13.66 -8 14 C-9.32 14 -10.64 14 -12 14 C-11.875 11.75 -11.875 11.75 -11 9 C-8.25 7 -8.25 7 -5 5 C-3.29671681 3.3707726 -1.61838719 1.71358643 0 0 Z " fill="#2D2D2D" transform="translate(71,296)"/>
<path d="M0 0 C0.33 0 0.66 0 1 0 C1.33 1.65 1.66 3.3 2 5 C2.598125 5.04125 3.19625 5.0825 3.8125 5.125 C6 6 6 6 7.75 9.0625 C8.1625 10.031875 8.575 11.00125 9 12 C6.03 11.01 3.06 10.02 0 9 C0 6.03 0 3.06 0 0 Z " fill="#C7C7C7" transform="translate(230,42)"/>
<path d="M0 0 C3.0534135 -0.29359745 5.95743422 -0.4451258 9 0 C11.5625 2.5 11.5625 2.5 13 5 C9.98968256 5.93423645 9.13349732 6.04449911 6 5 C5.67 4.01 5.34 3.02 5 2 C3.35 1.67 1.7 1.34 0 1 C0 0.67 0 0.34 0 0 Z " fill="#E2E2E2" transform="translate(171,234)"/>
<path d="M0 0 C2.375 -0.1875 2.375 -0.1875 5 0 C7 3 7 3 6.75 5.125 C6 7 6 7 4 8 C2.68 5.36 1.36 2.72 0 0 Z " fill="#0E0E0E" transform="translate(128,232)"/>
<path d="M0 0 C0.33 0 0.66 0 1 0 C1 3.63 1 7.26 1 11 C0.34 11 -0.32 11 -1 11 C-2.50662097 7.98675805 -2.17770373 5.31713623 -2 2 C-1.34 1.34 -0.68 0.68 0 0 Z " fill="#CECECE" transform="translate(107,185)"/>
<path d="M0 0 C0.99 0 1.98 0 3 0 C2.67 1.65 2.34 3.3 2 5 C1.34 5 0.68 5 0 5 C-0.28875 5.639375 -0.5775 6.27875 -0.875 6.9375 C-2 9 -2 9 -4 10 C-2.8905928 6.51329166 -1.73662334 3.22515763 0 0 Z " fill="#DEDEDE" transform="translate(115,250)"/>
<path d="M0 0 C2.25 0.125 2.25 0.125 5 1 C7.3125 4.0625 7.3125 4.0625 9 7 C8.67 7.66 8.34 8.32 8 9 C6.66368764 7.6905332 5.33102075 6.37734515 4 5.0625 C3.2575 4.33160156 2.515 3.60070312 1.75 2.84765625 C0 1 0 1 0 0 Z " fill="#1C1C1C" transform="translate(185,240)"/>
<path d="M0 0 C2.97 0 5.94 0 9 0 C8.67 1.32 8.34 2.64 8 4 C5.36 3.01 2.72 2.02 0 1 C0 0.67 0 0.34 0 0 Z " fill="#F9F9F9" transform="translate(178,175)"/>
<path d="M0 0 C2.52588702 2.36292656 3.88820837 3.66462511 5 7 C4.34 7 3.68 7 3 7 C3 6.34 3 5.68 3 5 C1.68 5.33 0.36 5.66 -1 6 C-1.625 4.125 -1.625 4.125 -2 2 C-1.34 1.34 -0.68 0.68 0 0 Z " fill="#DFDFDF" transform="translate(154,272)"/>
<path d="M0 0 C2.5 2.3125 2.5 2.3125 5 5 C5 5.99 5 6.98 5 8 C4.38125 7.649375 3.7625 7.29875 3.125 6.9375 C2.073125 6.4734375 2.073125 6.4734375 1 6 C0.01 6.495 0.01 6.495 -1 7 C-0.67 4.69 -0.34 2.38 0 0 Z " fill="#D2D2D2" transform="translate(148,264)"/>
<path d="M0 0 C0.66 0 1.32 0 2 0 C0.69425831 2.91280837 -0.7074208 4.80294493 -3 7 C-3.66 7.99 -4.32 8.98 -5 10 C-4.49890042 5.61537866 -3.01704885 3.1999003 0 0 Z " fill="#C1C1C1" transform="translate(237,237)"/>
<path d="M0 0 C0.33 1.32 0.66 2.64 1 4 C1.66 4 2.32 4 3 4 C2 6 2 6 -1 8 C-1.33 6.02 -1.66 4.04 -2 2 C-1.34 2 -0.68 2 0 2 C0 1.34 0 0.68 0 0 Z " fill="#222222" transform="translate(172,296)"/>
<path d="M0 0 C0.66 0.66 1.32 1.32 2 2 C0.68 3.65 -0.64 5.3 -2 7 C-2.66 6.67 -3.32 6.34 -4 6 C-2.25 1.125 -2.25 1.125 0 0 Z " fill="#E7E7E7" transform="translate(80,279)"/>
<path d="M0 0 C2.97 0.495 2.97 0.495 6 1 C5.67 2.65 5.34 4.3 5 6 C3.31237149 4.3545622 1.6459651 2.68711423 0 1 C0 0.67 0 0.34 0 0 Z " fill="#151515" transform="translate(150,266)"/>
</svg>
